<?xml version="1.0" encoding="UTF-8" standalone="no"?>
<svg
   version="1.0"
   width="1200pt"
   height="282pt"
   viewBox="0 0 1200 282"
   preserveAspectRatio="xMidYMid"
   id="svg23"
   sodipodi:docname="logo_1.svg"
   inkscape:version="1.4.2 (ebf0e940, 2025-05-08)"
   xmlns:inkscape="http://www.inkscape.org/namespaces/inkscape"
   xmlns:sodipodi="http://sodipodi.sourceforge.net/DTD/sodipodi-0.dtd"
   xmlns="http://www.w3.org/2000/svg"
   xmlns:svg="http://www.w3.org/2000/svg">
  <defs
     id="defs23" />
  <sodipodi:namedview
     id="namedview23"
     pagecolor="#ffffff"
     bordercolor="#000000"
     borderopacity="0.25"
     inkscape:showpageshadow="2"
     inkscape:pageopacity="0.0"
     inkscape:pagecheckerboard="0"
     inkscape:deskcolor="#d1d1d1"
     inkscape:document-units="pt"
     inkscape:zoom="0.609375"
     inkscape:cx="682.66667"
     inkscape:cy="683.48718"
     inkscape:window-width="2352"
     inkscape:window-height="1154"
     inkscape:window-x="820"
     inkscape:window-y="118"
     inkscape:window-maximized="0"
     inkscape:current-layer="svg23" />
  <g
     transform="matrix(0.1,0,0,-0.1,11.076923,1022.7692)"
     fill="#000000"
     stroke="none"
     id="g23"
     style="fill:#e6b4ea;fill-opacity:0.768398">
    <path
       d="m 1422.8757,9753.7526 c -6.4493,-0.9213 -29.9432,-4.146 -52.9765,-6.91 -52.5157,-6.4493 -148.7947,-30.8645 -202.6924,-51.5944 -269.94953,-103.6496 -480.93393,-324.3079 -573.06693,-600.2461 -34.0892,-101.8069 -47.9091,-191.6365 -47.9091,-308.1846 0,-258.8936 90.7509,-488.3046 263.5002,-667.0425 153.862,-158.9293 352.40853,-257.0509 576.29153,-284.2301 57.1224,-6.91 180.5806,-5.528 241.3883,2.3033 167.2213,22.1119 335.3639,93.9756 467.5746,200.3892 46.5272,37.7745 127.1435,118.3908 150.1767,150.6373 l 13.82,19.3479 43.7631,1.382 43.7631,1.382 2.3034,76.0097 2.764,76.0097 19.3479,43.3024 c 39.1565,85.6837 65.4144,192.5579 75.0883,304.4994 13.3593,155.7046 -18.4266,339.5099 -81.5376,472.1813 l -13.3593,27.6399 -2.3033,251.0622 -2.3034,251.0623 -287.9154,2.3033 c -279.6234,2.3033 -288.8367,2.764 -324.7686,12.4379 -66.3357,18.4266 -116.5481,24.8759 -209.6024,26.7186 -49.2911,0.9213 -94.8969,0.9213 -101.3462,-0.4607 z m 207.2991,-33.1678 c 8.7526,-3.6854 -4.146,-5.0674 -56.2011,-5.0674 l -68.1784,-0.4606 -0.9213,-369.4531 -1.382,-369.9137 -12.438,-1.382 c -12.8986,-1.382 -15.6626,-5.9887 -18.4265,-33.1679 -1.382,-10.5953 -3.6854,-11.5166 -31.3252,-14.2806 -16.584,-1.8426 -47.9092,-3.2246 -69.5604,-3.6853 l -39.1565,-0.4607 -12.8986,-81.5376 c -6.91,-45.1451 -24.4152,-162.6146 -39.6172,-261.1969 -14.7412,-98.1216 -28.1005,-180.1199 -29.4825,-181.5019 -1.382,-0.9213 -3.6853,0.4607 -4.6067,4.146 -44.6844,129.4468 -63.111,165.3786 -108.7168,212.8271 -33.6285,35.4712 -34.0892,36.8532 -34.0892,59.8864 0,19.3479 5.0673,35.0105 25.3365,79.2343 30.8646,66.7964 33.6286,69.0997 80.6164,58.9651 20.2692,-4.6066 39.6171,-5.9886 50.2124,-4.146 23.0332,4.6067 42.3812,23.9546 46.0665,46.9878 1.382,9.674 7.3706,38.6959 12.8986,63.5718 10.1346,45.6058 10.1346,46.0664 26.2579,50.2124 34.0892,8.7526 34.5498,16.1233 8.7526,83.3803 -18.8872,48.8305 -18.8872,49.2911 -15.2019,87.0656 2.3033,20.7299 2.764,53.4371 0.9213,72.3244 l -3.6853,34.5498 15.6626,13.82 c 44.6845,39.1565 38.6958,100.4249 -13.3593,134.9747 -21.1906,14.2806 -24.8759,15.202 -48.3698,12.8986 -70.9423,-8.2919 -77.8523,-8.2919 -127.1434,1.382 -27.6399,5.0673 -64.9538,10.5953 -82.459,12.438 -61.2684,5.528 -109.63823,-13.3593 -132.21083,-52.5158 -6.4493,-11.5166 -15.6626,-20.2692 -25.3365,-23.4939 -36.8532,-13.3593 -61.7291,-50.6731 -70.9424,-106.4135 -7.3706,-44.2238 -0.4607,-98.1216 23.4939,-184.2659 24.4152,-86.1443 27.6399,-123.4581 14.2806,-175.0526 -13.8199,-54.8191 -31.3252,-88.4476 -69.5603,-133.5927 -55.2798,-65.4144 -96.279,-143.7274 -122.0762,-232.6357 -11.9773,-41.9205 -25.3365,-109.6382 -25.3365,-129.4468 0,-52.0551 -58.0438,99.9643 -80.6164,210.9845 -57.583,285.1514 16.1233,577.2128 201.7712,799.2532 151.098,180.5805 361.16113,295.286 602.08873,328.4539 39.6172,5.5279 220.1977,2.764 234.939,-3.6853 z m 695.6036,-347.3412 c 0.4607,-756.8721 -0.4606,-1138.7631 -1.8426,-1140.1451 -0.9214,-0.9213 -532.0677,-2.3033 -579.9768,-1.382 -6.91,0 -8.292,3.2247 -6.91,22.1119 l 1.382,21.6513 264.4215,1.382 c 186.1085,0.4606 266.2642,2.3033 270.8708,5.9886 5.0673,4.6067 5.9887,120.6942 5.9887,678.5591 0,369.9137 -1.8427,675.795 -3.6854,679.0197 -3.2246,4.6066 -76.4703,5.528 -351.4871,4.6066 l -347.3412,-1.3819 -1.382,-270.4102 c -0.9213,-257.5116 -1.3819,-270.8708 -9.2132,-270.8708 -19.348,0 -27.1793,-15.6626 -32.7072,-65.4144 -3.2247,-26.2579 -6.4493,-50.6731 -6.91,-54.3585 -0.9213,-3.6853 -1.8427,155.244 -2.3033,353.7905 l -0.4607,360.2398 h 400.7783 400.7782 z m -69.0997,-171.8279 c 0,-305.4207 -1.382,-426.1149 -5.0673,-426.1149 -11.0559,0 -54.3584,29.9432 -61.729,42.3812 -8.292,13.8199 -15.6626,92.5936 -16.1233,170.4459 0,35.0105 0,35.0105 15.6626,44.2238 20.2692,11.9773 35.0105,42.8418 35.0105,74.167 0,13.3593 -1.8427,27.6399 -4.6066,32.2466 -2.764,5.9886 -2.3034,18.8872 2.3033,40.0778 7.8313,37.3138 8.7526,88.9083 2.3033,113.3235 -6.91,23.9546 -25.7972,44.6845 -52.0551,56.6618 -11.9773,5.9886 -29.4825,18.8872 -38.6958,29.4825 -31.3252,36.8532 -61.7291,43.3025 -134.5141,28.1005 -51.5945,-11.0559 -69.0997,-9.6739 -94.8969,5.528 l -16.1233,9.2133 -17.9659,-17.9659 c -20.2693,-20.2693 -30.4039,-48.8305 -26.7186,-76.931 1.8427,-13.8199 0.4607,-21.6512 -6.9099,-31.3252 -16.1233,-23.0332 -16.1233,-46.0665 0.4606,-79.2343 10.1346,-20.7299 14.2806,-35.9319 14.2806,-51.5945 0,-46.0664 9.674,-122.5368 21.1906,-166.2999 6.4493,-24.4152 12.4379,-46.0665 13.8199,-46.9878 0.9214,-1.382 5.528,1.382 9.674,5.528 6.91,6.9099 6.91,9.6739 -2.3033,40.9991 -11.9773,40.5385 -20.2693,103.6496 -18.4266,134.9748 l 1.382,23.0332 19.8086,1.382 c 30.4038,2.3033 42.3811,-7.8313 42.3811,-35.0105 0,-11.9773 -4.146,-36.3925 -8.7526,-53.8978 -10.5953,-37.7745 -7.8313,-45.6058 17.9659,-53.4371 14.2806,-4.146 21.1906,-4.146 30.4039,0 17.5052,7.8313 11.0559,16.5839 -13.3593,17.9659 -11.9773,0.9214 -21.6512,2.764 -21.6512,4.6067 0.4606,1.8426 3.2246,15.6626 6.9099,30.8645 8.7527,35.4712 8.7527,68.639 0,85.223 -7.8313,15.6626 -31.7858,24.8759 -58.0437,22.1119 l -17.9659,-1.8427 0.4606,30.4039 c 0.4607,16.5839 1.8427,35.0105 3.6853,41.4598 3.2247,11.056 5.0673,11.5166 30.8646,10.1346 14.7412,-0.9213 43.7631,1.8427 64.0324,5.528 66.3357,12.8986 114.2448,7.3706 126.2221,-14.7413 2.764,-5.5279 5.0673,-16.5839 5.0673,-25.3365 0,-9.2133 4.146,-21.1906 10.1346,-29.0219 7.8313,-9.6739 11.056,-20.7299 11.9773,-44.2238 2.3033,-34.5499 11.5166,-50.2124 21.1906,-34.0892 12.4379,20.7299 22.5725,30.4039 32.7072,30.4039 23.9545,0 32.2465,-36.3925 15.2019,-68.6391 -10.1346,-20.2692 -15.2019,-24.4152 -33.1679,-29.9432 -7.8313,-2.7639 -8.2919,-8.2919 -6.4493,-105.4922 2.3034,-108.7168 5.528,-125.7614 27.6399,-149.716 l 10.1346,-10.1346 -18.4265,-18.8873 c -56.2011,-57.583 -155.244,-67.257 -195.3219,-18.8872 -16.1232,19.8086 -16.5839,21.6512 -5.0673,33.6285 10.5953,11.5166 14.2806,28.5612 14.2806,64.4931 0,27.1792 0,27.1792 13.82,27.1792 23.0332,0 60.8077,17.5052 90.2902,40.9991 31.3252,26.2579 43.3025,43.7632 35.0106,52.0551 -4.146,4.146 -11.9773,-0.9213 -32.2466,-20.2692 -37.3138,-35.4712 -69.5603,-51.5944 -105.0315,-51.5944 -23.0333,-0.4607 -31.3252,1.8426 -46.9878,12.4379 -23.4939,15.6626 -24.8759,15.6626 -23.0332,0 0.9213,-9.2133 6.4493,-15.6626 19.8085,-23.0332 10.1347,-5.528 20.2693,-11.056 22.1119,-11.9773 2.3034,-0.4607 4.146,-16.5839 4.146,-35.4712 0,-40.5385 -1.382,-41.9205 -63.111,-67.257 -65.8751,-27.1793 -89.8297,-43.3025 -118.3909,-80.1557 -12.4379,-15.6626 -12.8986,-15.6626 -12.8986,-4.6066 0,6.4493 2.3033,29.9432 4.6067,52.5157 l 4.146,41.4599 25.7972,24.4152 c 13.8199,13.3593 25.3365,26.2579 25.3365,28.5612 0,2.3033 6.91,5.528 15.6626,6.91 31.7859,5.9886 53.4371,39.1565 53.4371,82.4589 0,20.2693 -3.6853,21.1906 -18.4266,5.528 -5.9886,-6.4493 -18.8872,-13.8199 -29.0218,-16.5839 -20.7299,-5.528 -40.0779,-22.5726 -40.0779,-35.4712 0,-5.0673 -5.0673,-12.4379 -11.5166,-16.5839 -6.4493,-4.146 -11.5166,-6.4493 -11.5166,-5.528 0,1.382 2.3033,17.9659 5.0673,37.3138 3.6853,26.7186 3.2247,36.8532 -0.9213,41.9205 -4.146,5.0673 -21.6512,6.4493 -85.6836,6.4493 h -80.6164 l 2.3034,15.202 c 2.764,19.3479 -3.6853,30.8645 -17.5053,30.8645 -5.9886,0 -11.9773,1.382 -12.8986,3.6853 -1.382,1.8427 -0.4607,17.9659 1.8427,35.4712 6.4493,49.2911 5.9886,65.875 -0.4607,73.7063 -4.6067,5.528 -5.9886,60.8078 -5.528,268.5675 0.4607,143.7274 0.4607,262.5789 0.4607,264.8822 0.4606,1.8427 148.7947,3.2247 329.8359,3.2247 h 329.3752 z m -947.5872,44.2238 c 5.9886,-5.9887 11.9773,-36.8532 12.4379,-62.1898 0,-20.7299 -0.4606,-22.1119 -10.1346,-19.8085 -44.2238,11.0559 -84.3016,5.0673 -84.3016,-12.8986 0,-6.4494 2.764,-8.7527 9.2133,-7.8313 30.4038,5.5279 49.7518,5.9886 63.5717,1.3819 15.2019,-5.0673 15.6626,-5.9886 15.6626,-29.4825 0,-17.5052 5.0673,-35.9318 19.3479,-69.5604 10.1346,-24.8759 17.5053,-46.9878 16.5839,-48.8304 -1.3819,-2.3033 -10.5952,-5.0673 -20.7299,-6.91 -11.0559,-1.8426 -18.8872,-5.9886 -20.2692,-10.5953 -4.146,-16.5839 -21.1906,-96.2789 -23.4939,-112.8628 -1.382,-9.2133 -7.3706,-21.1906 -12.8986,-26.7186 -8.7526,-8.2919 -14.2806,-9.2133 -40.0778,-7.3706 -35.4712,2.3033 -97.661,25.3366 -122.0762,44.6845 -19.8086,15.6626 -24.4152,16.5839 -28.1005,6.9099 -4.146,-10.1346 5.528,-19.8085 35.9318,-35.0105 23.9546,-11.9773 34.0892,-22.5725 22.1119,-22.5725 -2.764,0 -8.7526,-8.7527 -13.3593,-19.348 -5.0673,-11.0559 -16.5839,-36.3925 -25.7972,-56.6617 -9.2133,-20.2693 -17.9659,-47.9091 -19.3479,-61.2684 -1.382,-13.3593 -4.146,-23.4939 -5.528,-22.5726 -40.9991,21.6513 -86.14433,40.9992 -98.12153,41.4598 -27.1793,1.382 -17.0446,-11.0559 23.95453,-28.5612 82.459,-35.9318 132.6714,-79.695 167.2213,-146.4913 18.8872,-36.8532 80.6163,-204.9958 125.7615,-344.1166 10.1346,-29.9432 20.7299,-55.7404 23.9545,-57.1224 11.9773,-4.146 14.7413,5.9887 7.8313,28.5612 l -6.91,22.1119 26.7186,30.4039 c 14.2806,17.0446 49.7518,61.2684 78.313,99.0429 28.5612,37.3139 54.8191,67.7177 58.0437,67.7177 19.348,0 122.5368,-84.7623 122.5368,-100.4249 0,-7.3706 -74.167,-152.48 -103.6495,-203.6138 -34.5499,-58.5044 -86.1443,-133.5927 -117.0088,-169.0639 -30.4039,-35.0105 -31.7859,-35.9318 -50.6731,-34.5498 -26.2579,1.3819 -134.5141,29.9432 -168.1427,43.7631 -25.3365,10.5953 -29.0218,13.8199 -49.7517,47.4485 -43.7632,70.4817 -134.97483,261.6575 -174.59203,364.3857 -10.5952,28.1006 -18.4265,36.8532 -28.1005,30.8645 -6.4493,-4.1459 -2.3033,-17.5052 35.9318,-106.8742 38.2352,-89.3689 94.89703,-207.7597 128.06483,-266.7248 11.9773,-21.1906 19.8086,-38.2352 17.9659,-38.2352 -5.9886,0 -83.3803,43.7632 -119.77283,67.7177 -99.5035,66.3358 -192.0971,160.772 -258.8935,263.9609 -25.3366,39.1565 -28.1006,46.0665 -28.1006,67.257 0,37.7745 17.0446,128.5255 34.5499,183.8052 25.7972,81.9984 60.8077,145.5701 121.6155,218.3551 35.9318,43.3025 51.5944,76.931 64.493,135.8961 l 7.8313,36.3925 24.8759,6.4493 c 28.1006,6.91 44.2238,20.2692 65.41443,53.4371 13.8199,21.6512 14.7413,22.1119 31.7859,19.3479 14.2806,-2.3033 17.9659,-1.382 22.1119,5.9887 5.5279,10.5952 2.3033,14.7412 -11.9773,14.7412 -25.7972,0 -51.59453,46.9878 -45.1452,82.459 9.2133,49.7518 60.8078,48.3698 77.3917,-1.8427 5.0673,-14.2806 9.2133,-18.8872 18.4266,-19.8085 13.8199,-1.8427 19.3479,6.4493 23.0332,35.0105 3.2247,26.2579 12.8986,40.0778 40.0779,56.6617 23.0332,13.82 25.7972,20.2693 27.1792,52.5158 0,8.292 4.6066,17.0446 10.5953,22.5726 9.2133,7.3706 15.6626,8.2919 56.6617,5.5279 25.3366,-1.3819 47.4485,-4.6066 49.7518,-6.9099 z m 1057.6861,-140.9634 c 68.1784,-188.8725 71.8637,-415.0589 10.1346,-604.8527 -29.4825,-88.9083 -27.6399,-105.4922 -28.1005,288.3761 0,195.3218 0.9213,355.6331 1.8426,355.6331 0.9214,0 8.292,-17.5053 16.1233,-39.1565 z m -779.4446,-28.1006 c 1.382,-4.1459 0.9213,-27.1792 -1.382,-51.5944 l -4.146,-44.6845 -17.0446,-1.382 c -16.1233,-1.382 -17.5053,-0.4606 -17.5053,10.1347 0,22.5725 10.1347,83.3803 14.7413,89.3689 6.91,7.8313 21.6512,6.91 25.3366,-1.8427 z m 26.2578,-129.4467 c -1.8426,-7.3707 -3.2246,-13.3593 -3.6853,-13.3593 -0.4606,-0.4607 -26.7185,-1.8427 -58.965,-3.6853 l -58.9651,-2.764 v 13.3593 c 0,12.8986 1.382,13.8199 19.8086,15.6626 10.5952,0.9213 38.6958,1.8426 62.1897,2.3033 l 42.3811,0.9213 z m 125.3008,-66.7964 c -7.3706,-85.223 -7.8313,-86.605 -19.3479,-93.9756 -10.1346,-6.91 -11.9773,-6.4493 -25.3365,4.6066 -26.7186,22.5726 -52.9765,9.2133 -47.4485,-24.8758 2.764,-15.6626 1.382,-17.5053 -14.2806,-26.7186 -9.2133,-5.528 -20.7299,-10.1346 -25.7972,-10.1346 -13.82,0 -54.8191,-40.9992 -66.7964,-66.7964 -5.9886,-12.4379 -11.056,-29.9432 -11.056,-37.7745 0,-10.1346 -2.3033,-15.2019 -6.9099,-15.2019 -17.5053,0 -17.5053,36.3925 0,47.9091 11.5166,7.3706 27.6399,50.2124 32.7072,85.6836 1.382,11.5166 5.9886,27.6399 9.6739,35.9319 9.674,22.1119 3.2247,37.7745 -21.6512,50.6731 -11.056,5.528 -27.6399,10.1346 -36.8532,10.1346 -24.8759,-0.4607 -53.4371,-15.2019 -62.6504,-33.1679 -10.1346,-19.8085 -13.8199,-70.4817 -7.3706,-109.1775 6.91,-40.5385 2.3033,-59.8864 -16.5839,-71.8637 -45.1452,-27.6399 -58.9651,-38.2351 -66.3358,-50.6731 -10.5952,-18.4266 -33.1678,-145.1094 -26.7185,-151.5587 9.2133,-9.2133 14.2806,5.0673 24.8759,70.9424 7.3706,43.7631 13.8199,69.5604 19.8086,77.3917 5.0673,6.4493 23.9545,20.2692 42.8418,30.4038 30.8645,17.0446 34.5498,20.7299 39.1565,37.7745 l 4.6066,18.8873 18.4266,-8.292 c 17.5053,-7.8313 17.9659,-8.7526 16.5839,-28.5612 -0.9213,-15.6626 0.9214,-22.1119 6.4493,-24.8759 6.4494,-3.6853 2.764,-9.2133 -23.0332,-34.0892 -17.0446,-16.1232 -32.2465,-29.9432 -34.0892,-30.8645 -1.8426,-0.4607 -11.5166,5.9886 -22.1119,15.2019 -19.8086,16.584 -29.0219,20.2693 -29.0219,10.5953 0,-7.8313 4.146,-13.3593 21.6513,-27.1792 l 14.7413,-12.4379 -11.5167,-10.5953 c -5.9886,-5.528 -11.0559,-12.8986 -11.0559,-16.1233 0,-11.9773 13.3593,-9.674 27.1792,4.6067 14.2806,14.7412 15.2019,15.2019 54.8191,14.2806 l 40.0778,-0.9214 -0.4606,-24.8759 c -0.4607,-17.9659 -4.6067,-32.7072 -15.202,-53.4371 -12.4379,-25.3365 -16.1232,-29.0218 -27.6399,-29.0218 -11.0559,0 -19.3479,-8.292 -60.8077,-60.8078 -83.841,-107.7955 -106.4135,-134.0534 -110.5595,-127.1434 -1.8427,3.2246 -13.82,36.3925 -26.2579,73.2457 l -22.5726,67.257 8.7527,53.4371 c 4.6066,29.4825 23.9545,152.48 42.3811,272.7135 18.8873,120.6941 34.5499,220.1977 35.4712,221.119 2.764,2.3034 217.4337,10.1347 310.0273,10.5953 l 81.9983,0.9213 z m 36.8532,-6.91 c -2.764,-31.7858 -5.0673,-42.3811 -12.8986,-49.7518 l -9.2133,-9.2133 3.2247,46.0665 c 3.6853,50.6731 4.1459,52.9764 14.7412,52.9764 6.4493,0 6.91,-5.5279 4.146,-40.0778 z m 38.6958,-43.7631 c 0,-3.2247 -14.7412,-17.0446 -32.2465,-30.8646 -17.9659,-13.8199 -35.9318,-29.0218 -40.0778,-33.6285 -8.7526,-9.6739 -21.1906,-11.0559 -18.8873,-1.8426 1.8427,7.3706 77.3917,70.9423 85.6837,71.403 2.764,0.4607 5.5279,-2.3033 5.5279,-5.0673 z m -273.1741,-19.3479 c 10.5953,-9.674 11.9773,-12.8987 7.8313,-19.8086 -3.2247,-4.6067 -9.2133,-7.8313 -13.8199,-6.91 -5.0674,0.4607 -16.584,2.3033 -25.7973,4.146 -13.3592,1.8426 -17.5052,0.9213 -17.5052,-3.6853 0,-7.8313 20.7299,-17.9659 35.4712,-17.9659 8.7526,0 10.5952,-2.3034 10.5952,-13.3593 0,-18.8873 -16.1232,-68.6391 -25.7972,-79.2343 -11.5166,-12.438 -32.2465,-11.056 -45.6058,3.2246 -14.2806,15.2019 -17.5052,33.1679 -15.6626,79.695 2.3033,49.7518 15.202,64.0324 58.0438,64.493 14.2806,0.4607 22.5725,-2.7639 32.2465,-10.5952 z m 154.3227,-52.0551 c 33.1678,-34.5499 33.6285,-35.9319 17.0446,-81.9984 -14.7413,-41.9204 -15.6626,-55.2797 -4.146,-55.2797 4.6066,0 10.5953,11.5166 17.5052,33.6285 16.584,50.6731 26.2579,33.6285 12.8986,-23.0332 -3.2246,-14.2806 -4.6066,-28.5612 -2.7639,-31.7859 5.5279,-8.7526 18.4265,-0.9213 18.4265,10.5953 0,5.9886 1.8427,13.3593 4.146,16.5839 5.528,9.2133 10.1346,-30.4038 5.0673,-51.1338 -5.0673,-22.5725 -8.7526,-28.1005 -64.0324,-90.7509 -37.3138,-41.9205 -52.0551,-63.5717 -72.785,-103.6496 -13.8199,-27.6398 -26.2579,-51.1337 -26.7185,-52.0551 -0.9214,-0.9213 -17.0446,10.5953 -35.9319,25.3366 -18.8872,14.7413 -37.7745,29.0219 -42.3811,31.3252 -7.3707,4.6066 -6.4493,6.91 7.3706,34.5498 l 15.6626,29.9432 v 70.4817 70.0211 l 23.0332,18.4266 c 14.7413,11.5166 24.4153,16.5839 27.1793,13.8199 2.7639,-2.764 8.2919,-4.6066 13.3592,-4.6066 11.9773,0 58.5045,48.3697 72.3244,74.6276 l 11.5166,21.6513 -12.8986,25.7972 c -21.6512,44.2238 -16.1233,50.2124 16.1233,17.5053 z m 540.3596,2.3033 20.7299,-10.1346 v -224.8044 -224.8044 h -257.9722 c -198.5465,0 -257.9722,1.382 -257.9722,5.528 0,3.2247 4.146,52.5158 9.674,109.6382 8.2919,91.6723 11.0559,105.9529 20.7299,123.4581 15.2019,25.3366 17.9659,56.2011 9.6739,92.133 -3.6853,16.1232 -4.6066,27.1792 -2.3033,24.8759 3.2247,-3.2247 15.2019,5.9886 35.0105,26.2578 26.7186,27.1793 37.3139,34.0892 81.5377,52.9765 34.5498,15.2019 51.1337,20.2692 52.5157,16.1232 4.146,-12.4379 36.3925,-42.8418 53.4371,-50.6731 58.9651,-26.2579 138.6601,-6.4493 191.1759,46.9878 11.5166,11.5166 21.1906,21.6513 21.6512,21.6513 0.4607,0.4606 10.5953,-3.6853 22.1119,-9.2133 z m -476.7879,-29.0219 c 0,-20.7299 -5.528,-27.6399 -11.056,-13.3593 -3.6853,9.674 -3.6853,27.1792 0.4607,30.8646 7.3706,7.3706 10.5953,1.8426 10.5953,-17.5053 z M 1647.68,8707.5831 c -6.9099,-6.9099 -14.2806,-10.5953 -16.1232,-8.7526 -4.146,3.6853 14.7412,21.1906 23.0332,21.1906 3.2247,0 -0.4607,-5.528 -6.91,-12.438 z m -35.9318,-14.7412 c 0,-10.5953 -5.528,-18.4266 -26.2579,-36.8532 -28.1005,-24.8759 -33.6285,-27.6399 -33.6285,-16.1233 0,11.5166 9.2133,25.7973 29.4825,46.5272 22.1119,23.4939 30.4039,24.8759 30.4039,6.4493 z m 16.1233,-37.3139 c -4.6067,-5.0673 -10.5953,-9.2133 -12.8987,-9.2133 -2.7639,0 -0.9213,4.146 3.6854,9.2133 4.6066,5.0673 10.5952,9.2133 12.8986,9.2133 2.764,0 0.9213,-4.146 -3.6853,-9.2133 z m -104.5709,-126.6828 c -5.0673,-4.6066 -39.6172,-5.9886 -45.1452,-2.3033 -5.9886,4.146 -5.5279,5.528 1.8427,10.1346 5.0673,2.764 16.5839,11.9773 25.3366,20.2693 l 16.5839,15.2019 1.382,-21.1906 c 0.9213,-11.5166 0.9213,-21.1905 0,-22.1119 z m 199.0071,-220.1977 c -7.8313,-89.3689 -15.2019,-164.9179 -16.1233,-167.6819 -1.3819,-3.2247 -6.4493,-5.9887 -11.9772,-5.9887 -8.7527,0 -9.674,1.8427 -6.91,19.8086 1.382,10.5953 5.9886,56.6618 9.674,102.7283 16.5839,193.0184 18.8872,213.2877 28.1005,223.4223 l 8.7526,9.674 1.382,-9.674 c 0.9214,-5.528 -5.0673,-82.9196 -12.8986,-172.2886 z m -39.1565,3.2247 c -6.4493,-70.9424 -12.8986,-139.5814 -14.7413,-152.9407 l -2.7639,-23.9546 -48.8305,2.764 c -26.7185,1.8427 -49.2911,3.6854 -50.2124,4.146 -0.9214,0.9213 13.3592,30.4039 30.8645,66.3357 34.0892,67.7177 37.3138,78.313 25.7972,87.987 -10.5953,8.7526 -8.7526,14.7413 17.9659,68.639 23.0333,46.0665 47.4485,81.9983 52.0551,77.3917 0.9214,-1.382 -3.6853,-59.8864 -10.1346,-130.3681 z m 532.989,-115.6269 c -38.2351,-52.9764 -129.9074,-134.9747 -208.2204,-187.0298 -155.7047,-102.7282 -323.3866,-152.0194 -515.9444,-151.5587 -46.9878,0.4607 -90.751,1.8427 -97.6609,4.146 l -12.438,3.6853 25.3366,29.9432 c 32.7072,38.2352 89.3689,122.9975 121.6154,181.0412 l 24.8759,45.1452 83.841,-3.2247 83.3803,-3.2246 2.764,15.6626 c 1.382,8.7526 4.146,29.4825 5.9886,46.9878 l 2.764,30.8645 h 246.4556 245.995 z"
       id="path1"
       style="fill:#e6b4ea;fill-opacity:0.768398;stroke-width:0.460665" />
    <path
       d="m 1784.9581,9417.0067 c -54.8191,-57.5831 -99.5036,-107.3348 -99.5036,-110.5595 0,-18.4266 24.8759,2.764 112.8629,97.6609 53.4371,56.6618 96.7396,105.9529 96.7396,108.7169 0,17.0446 -19.8086,-0.4607 -110.0989,-95.8183 z"
       id="path2"
       style="fill:#e6b4ea;fill-opacity:0.768398;stroke-width:0.460665" />
    <path
       d="m 1802.4634,9347.4464 c -9.674,-6.91 -133.1321,-145.1094 -134.5141,-150.6374 -0.9213,-3.2246 1.8426,-6.91 5.528,-8.2919 4.6066,-1.8427 19.3479,11.5166 45.1451,39.6171 20.7299,23.4939 51.1338,56.2011 66.7964,73.2457 27.1792,28.5612 34.0892,41.4598 25.3365,46.9878 -1.8426,0.9213 -5.5279,0.9213 -8.2919,-0.9213 z"
       id="path3"
       style="fill:#e6b4ea;fill-opacity:0.768398;stroke-width:0.460665" />
    <path
       d="m 2004.6952,9177.4611 c -13.3593,-2.764 -22.5726,-14.2806 -16.584,-20.2692 3.2247,-3.2247 10.5953,-3.2247 23.9546,0.9213 14.7413,4.146 23.0332,4.6066 36.8532,0.4607 23.9545,-7.3707 28.1005,-6.91 28.1005,2.7639 0,14.2806 -38.6958,22.5726 -72.3243,16.1233 z"
       id="path4"
       style="fill:#e6b4ea;fill-opacity:0.768398;stroke-width:0.460665" />
    <path
       d="m 2018.5151,9126.788 c -7.3706,-2.764 -7.8313,-17.9659 -0.9213,-22.5726 2.764,-1.382 8.2919,0.4607 12.4379,4.6067 6.4493,6.4493 6.4493,8.2919 0.9213,13.8199 -3.6853,3.2247 -9.6739,5.528 -12.4379,4.146 z"
       id="path5"
       style="fill:#e6b4ea;fill-opacity:0.768398;stroke-width:0.460665" />
    <path
       d="m 1897.3603,9113.8894 c 0,-10.1346 1.8426,-11.9773 10.5953,-10.5953 6.4493,0.9213 10.1346,4.6066 10.1346,10.5953 0,5.9886 -3.6853,9.6739 -10.1346,10.5953 -8.7527,1.382 -10.5953,-0.4607 -10.5953,-10.5953 z"
       id="path6"
       style="fill:#e6b4ea;fill-opacity:0.768398;stroke-width:0.460665" />
    <path
       d="m 2003.3132,8982.1393 c -6.4493,-1.8427 -22.1119,-3.2247 -35.4712,-3.6853 -12.8986,-0.4607 -24.8759,-2.3034 -26.7186,-4.6067 -4.6066,-7.3706 14.2806,-14.2806 37.7745,-13.8199 29.4826,0.4606 44.6845,5.0673 46.5272,14.2806 1.8426,9.2133 -7.3707,12.4379 -22.1119,7.8313 z"
       id="path7"
       style="fill:#e6b4ea;fill-opacity:0.768398;stroke-width:0.460665" />
    <path
       d="m 1269.4743,9103.7548 c -10.1346,-9.674 0.9214,-25.7973 14.2806,-21.1906 9.2133,3.2246 6.91,24.4152 -2.7639,24.4152 -4.6067,0 -10.1347,-1.382 -11.5167,-3.2246 z"
       id="path8"
       style="fill:#e6b4ea;fill-opacity:0.768398;stroke-width:0.460665" />
  </g>
  <text
     xml:space="preserve"
     style="font-weight:100;font-size:140px;font-family:Skia;-inkscape-font-specification:'Skia Thin';text-align:start;writing-mode:lr-tb;direction:ltr;text-anchor:start;opacity:0.8;fill:#e6b4ea;fill-opacity:0.768398;stroke-width:2.025"
     x="291.69232"
     y="194.46152"
     id="text23"><tspan
       sodipodi:role="line"
       id="tspan23"
       style="font-style:normal;font-variant:normal;font-weight:300;font-stretch:normal;font-family:Avenir;-inkscape-font-specification:'Avenir Light';stroke-width:2.025"
       x="291.69232"
       y="194.46152">GETSOURCE</tspan></text>
</svg>
